<?xml version="1.0" encoding="UTF-8" standalone="no"?>
<!DOCTYPE svg PUBLIC "-//W3C//DTD SVG 20010904//EN"
              "http://www.w3.org/TR/2001/REC-SVG-20010904/DTD/svg10.dtd">

<svg xmlns="http://www.w3.org/2000/svg"
     width="25.4013mm" height="44.4523mm"
     viewBox="0 0 144 252">
  <path id="Selection"
        fill="none" stroke="black" stroke-width="1"
        d="M 47.00,152.00
           C 44.12,147.68 40.00,143.26 39.21,138.00
             38.00,129.85 43.51,126.50 49.00,121.72
             57.17,114.61 72.59,104.53 72.80,93.00
             72.98,91.84 72.89,90.13 72.80,89.01
             70.41,78.17 59.92,89.71 52.90,82.71
             46.64,76.46 41.47,59.78 42.05,51.00
             42.33,46.76 46.45,32.72 48.55,29.01
             52.20,22.58 64.59,15.89 72.00,15.56
             77.64,15.32 91.62,20.08 95.82,23.82
             104.21,31.29 106.98,42.20 107.22,53.00
             107.00,55.66 106.57,65.36 107.22,67.20
             108.44,69.31 112.17,72.23 113.96,74.04
             119.36,79.50 123.17,86.33 119.57,94.00
             114.03,105.79 101.60,102.92 94.09,94.98
             87.15,87.65 84.40,77.42 81.47,68.00
             80.27,64.18 81.43,61.51 79.98,59.31
             77.58,55.39 74.85,59.32 71.91,59.31
             69.95,59.48 67.66,58.18 66.04,57.17
             56.91,51.50 56.39,42.46 54.00,33.00
             54.00,33.00 52.00,33.00 52.00,33.00
             52.00,33.00 48.99,44.00 48.99,44.00
             48.00,49.83 48.75,63.73 51.26,69.00
             52.75,72.13 54.90,76.39 58.04,77.86
             63.66,81.13 69.43,74.12 73.16,77.86
             74.79,79.17 75.75,83.80 76.19,86.00
             79.84,104.33 71.55,105.72 62.00,118.00
             62.00,118.00 63.00,119.00 63.00,119.00
             75.24,114.72 82.13,106.07 91.00,105.20
             97.86,104.52 103.22,108.55 106.90,114.00
             106.90,114.00 125.24,150.00 125.24,150.00
             127.91,155.42 131.35,162.90 129.30,169.00
             126.77,176.56 114.18,187.18 108.00,192.20
             105.73,194.04 99.17,198.73 98.23,201.17
             97.21,203.81 99.54,207.45 100.46,210.00
             102.50,215.64 103.55,220.98 102.82,227.00
             102.06,233.22 98.05,239.95 92.00,242.26
             89.18,243.34 81.38,243.00 78.00,243.00
             78.00,243.00 51.00,243.00 51.00,243.00
             48.46,243.00 45.45,243.08 43.00,242.44
             30.49,239.19 20.65,223.11 18.23,211.00
             17.88,207.79 17.96,204.26 18.23,201.00
             18.11,191.82 21.99,182.68 26.81,175.00
             28.51,172.31 31.11,167.76 34.97,169.17
             37.06,169.93 40.10,173.82 42.09,175.48
             45.42,178.27 50.80,181.08 55.00,182.22
             57.22,182.82 63.67,183.57 63.34,179.66
             62.87,174.01 53.08,170.90 53.00,163.00
             53.00,163.00 61.00,166.00 61.00,166.00
             53.39,159.03 52.54,158.79 43.00,156.00
             43.00,156.00 43.00,154.00 43.00,154.00
             43.00,154.00 47.00,152.00 47.00,152.00 Z
           M 31.00,209.00
           C 31.58,210.81 31.60,211.78 33.31,213.02
             38.07,216.44 54.25,214.79 60.00,213.69
             77.49,210.35 100.44,195.26 112.99,182.96
             117.89,178.16 125.57,169.37 124.63,162.00
             124.15,158.20 119.38,148.86 117.51,145.00
             114.34,138.45 105.75,119.77 101.61,115.11
             95.30,107.98 84.06,110.11 85.11,123.00
             85.73,130.67 92.44,138.82 92.61,144.00
             92.61,144.00 87.75,163.00 87.75,163.00
             86.65,167.71 87.00,173.14 87.00,178.00
             95.05,175.64 97.38,168.84 104.00,164.85
             107.67,162.64 110.93,162.81 115.00,163.00
             110.73,167.36 108.64,166.01 102.32,171.53
             95.96,177.08 81.91,191.97 75.00,194.30
             72.75,195.06 70.34,194.99 68.00,195.00
             58.36,195.05 48.25,194.29 41.00,202.00
             41.00,202.00 52.00,202.00 52.00,202.00
             52.00,202.00 31.00,209.00 31.00,209.00 Z" />
</svg>
