<?xml version="1.0" encoding="UTF-8" standalone="no"?>
<!DOCTYPE svg PUBLIC "-//W3C//DTD SVG 20010904//EN"
              "http://www.w3.org/TR/2001/REC-SVG-20010904/DTD/svg10.dtd">

<svg xmlns="http://www.w3.org/2000/svg"
     width="59.2697mm" height="49.0386mm"
     viewBox="0 0 336 278">
  <path id="Selection"
        fill="none" stroke="black" stroke-width="1"
        d="M 79.00,105.00
           C 85.31,94.19 102.49,101.76 105.83,108.04
             107.27,110.78 107.10,114.99 106.71,118.00
             105.98,123.64 100.95,143.68 97.87,147.79
             90.86,157.16 73.36,152.00 67.56,144.90
             63.32,139.72 65.16,136.27 61.69,132.17
             58.12,127.95 48.45,123.68 38.18,112.00
             23.00,94.73 20.69,68.92 40.00,53.67
             45.84,49.05 48.13,48.26 55.00,46.00
             64.25,42.95 67.44,42.89 77.00,43.00
             90.32,43.16 112.15,52.09 124.00,58.32
             141.16,67.34 145.46,74.24 167.00,74.00
             177.24,73.88 186.28,70.55 195.00,65.40
             210.31,56.34 236.06,43.21 254.00,43.00
             278.86,42.71 306.10,53.74 304.96,83.00
             304.42,96.79 298.25,108.56 287.99,117.71
             287.99,117.71 270.15,132.09 270.15,132.09
             265.70,136.92 267.89,139.28 264.49,143.98
             259.85,150.41 247.69,154.77 240.00,152.35
             236.55,151.26 234.18,149.10 232.41,145.98
             230.90,143.31 229.71,139.00 228.86,136.00
             226.51,127.73 220.48,112.40 227.39,105.39
             230.99,101.74 239.92,98.33 245.00,99.56
             248.21,100.33 250.75,102.48 254.00,102.45
             257.28,102.42 268.01,98.05 271.00,96.24
             273.35,94.82 275.93,92.93 277.79,90.91
             290.90,76.60 273.27,66.38 260.00,65.32
             248.05,64.37 230.93,74.42 222.00,81.76
             219.19,84.06 214.13,87.79 212.73,91.09
             212.73,91.09 209.73,110.00 209.73,110.00
             208.68,116.76 205.10,129.69 202.55,136.00
             195.89,152.43 185.32,167.34 181.81,185.00
             180.16,193.27 179.34,203.08 180.72,211.42
             181.51,216.19 184.94,222.76 183.40,226.98
             181.30,232.71 174.31,233.86 169.00,233.99
             162.24,234.14 148.77,232.11 147.06,224.00
             146.49,221.25 148.76,216.75 149.64,214.00
             151.05,209.61 152.25,201.57 151.71,197.00
             148.29,168.06 132.19,151.69 125.15,126.00
             123.16,118.73 121.22,111.50 120.29,104.00
             119.74,99.64 120.01,94.19 117.93,90.18
             116.52,87.47 111.45,83.30 109.00,81.31
             100.28,74.23 84.51,65.34 73.00,65.34
             64.06,65.34 47.59,70.82 48.98,82.17
             50.43,93.99 69.29,101.14 79.00,105.00 Z
           M 6.00,45.00
           C 6.00,45.00 7.00,45.00 7.00,45.00
             7.00,45.00 6.00,46.00 6.00,46.00
             6.00,46.00 6.00,45.00 6.00,45.00 Z
           M 263.00,125.00
           C 268.16,123.03 271.70,120.18 276.00,116.79
             280.31,113.39 284.05,110.36 287.48,106.00
             296.98,93.94 301.72,75.55 289.79,63.18
             287.30,60.60 282.26,57.43 279.00,55.81
             273.44,53.04 265.22,51.69 259.00,51.17
             245.71,50.06 222.60,59.43 211.00,65.86
             211.00,65.86 192.00,76.56 192.00,76.56
             182.67,80.68 173.11,82.11 163.00,82.00
             143.82,81.77 138.43,75.65 123.00,67.31
             109.76,60.14 91.13,51.96 76.00,51.09
             72.46,50.89 63.55,52.19 60.00,53.04
             55.93,54.01 51.53,55.85 48.00,58.09
             34.49,66.69 31.47,82.81 37.90,97.00
             42.04,106.13 58.77,121.39 68.00,125.00
             68.00,125.00 74.00,112.00 74.00,112.00
             61.76,106.81 41.71,98.36 41.04,83.00
             40.18,63.37 61.37,55.10 78.00,57.29
             84.74,58.17 93.94,62.20 100.00,65.36
             107.28,69.15 123.32,80.73 126.49,88.00
             128.11,91.70 127.87,96.95 128.42,101.00
             129.86,111.50 131.03,118.90 134.69,129.00
             134.69,129.00 156.98,181.00 156.98,181.00
             159.32,188.59 160.74,198.09 159.71,206.00
             159.32,209.04 156.23,219.96 156.78,221.72
             158.44,227.04 170.92,225.54 175.00,225.00
             174.55,215.82 172.05,216.03 172.00,205.00
             171.95,194.59 173.39,184.06 176.16,174.00
             176.16,174.00 197.66,125.00 197.66,125.00
             199.85,118.15 201.79,107.23 202.72,100.00
             203.20,96.19 203.24,90.38 205.01,87.00
             206.91,83.38 213.66,77.45 217.00,74.82
             228.65,65.64 246.75,55.64 262.00,57.17
             281.04,59.07 299.91,74.96 286.21,94.00
             279.05,103.95 267.06,107.31 256.00,111.00
             256.00,111.00 263.00,125.00 263.00,125.00 Z
           M 88.10,108.55
           C 82.42,110.97 80.62,117.87 77.84,123.00
             76.20,126.02 73.20,130.67 72.64,134.00
             71.52,140.73 82.35,146.41 87.96,144.39
             92.61,142.71 93.66,136.24 94.86,132.00
             94.86,132.00 97.63,122.00 97.63,122.00
             99.39,115.21 100.70,110.73 92.00,108.55
             90.07,108.16 89.92,108.36 88.10,108.55 Z
           M 240.98,108.38
           C 228.23,110.99 232.15,115.90 236.58,132.00
             238.04,137.32 238.46,145.22 246.00,144.73
             247.70,144.62 249.44,143.90 251.00,143.26
             264.84,137.60 256.80,129.45 251.78,120.00
             249.09,114.93 247.39,108.64 240.98,108.38 Z" />
</svg>
