<?xml version="1.0" encoding="UTF-8" standalone="no"?>
<!DOCTYPE svg PUBLIC "-//W3C//DTD SVG 20010904//EN"
              "http://www.w3.org/TR/2001/REC-SVG-20010904/DTD/svg10.dtd">

<svg xmlns="http://www.w3.org/2000/svg"
     width="1.40278in" height="3.91667in"
     viewBox="0 0 101 282">
  <path id="woman"
        fill="none" stroke="black" stroke-width="1"
        d="M 45.00,2.31
           C 47.22,2.17 48.71,1.94 51.00,2.31
             75.12,3.77 76.97,38.90 53.00,44.32
             39.92,47.28 28.23,34.68 29.10,22.00
             29.76,12.23 35.82,5.39 45.00,2.31 Z
           M 28.00,87.00
           C 28.00,87.00 40.86,111.00 40.86,111.00
             43.68,116.09 46.49,119.83 45.89,126.00
             45.54,129.53 42.58,135.56 38.10,133.83
             35.87,132.97 34.31,129.94 33.14,128.00
             33.14,128.00 25.24,114.00 25.24,114.00
             18.00,99.76 8.45,86.70 7.18,70.00
             6.74,64.20 8.75,56.24 13.11,52.22
             19.05,46.75 28.49,48.08 36.00,47.84
             36.00,47.84 46.00,47.84 46.00,47.84
             46.00,47.84 57.00,47.84 57.00,47.84
             57.00,47.84 71.00,49.00 71.00,49.00
             71.00,49.00 77.00,49.00 77.00,49.00
             80.40,49.02 83.84,49.00 86.96,50.57
             94.51,54.36 95.77,64.63 94.11,72.00
             90.43,88.31 83.92,96.84 76.31,111.00
             76.31,111.00 68.22,127.00 68.22,127.00
             68.22,127.00 57.22,145.87 57.22,145.87
             55.14,148.36 52.40,150.09 49.05,149.02
             41.18,146.50 45.83,136.75 48.26,132.00
             48.26,132.00 72.00,86.00 72.00,86.00
             64.51,89.72 61.46,100.01 57.42,107.00
             55.88,109.66 53.62,114.37 50.03,114.37
             46.60,114.37 44.48,109.53 42.99,107.00
             39.12,100.45 34.71,90.56 29.00,86.00
             29.00,86.00 28.00,87.00 28.00,87.00 Z
           M 51.00,173.00
           C 47.80,182.88 49.00,193.72 49.00,204.00
             49.00,204.00 49.00,234.00 49.00,234.00
             49.00,234.00 50.00,249.00 50.00,249.00
             50.00,249.00 50.00,266.00 50.00,266.00
             49.97,272.29 47.33,281.29 39.00,279.53
             34.92,278.66 31.99,274.79 30.80,271.00
             29.56,267.03 30.05,257.61 30.00,253.00
             30.00,253.00 29.00,238.00 29.00,238.00
             29.00,238.00 29.00,205.00 29.00,205.00
             29.00,205.00 28.00,188.00 28.00,188.00
             27.98,178.26 30.24,171.17 18.00,171.00
             15.11,170.96 9.56,171.29 7.05,170.26
             2.70,168.47 1.84,164.20 2.69,160.00
             3.52,155.94 9.29,143.47 11.30,139.00
             12.86,135.56 17.56,123.59 20.38,122.08
             24.79,119.71 28.17,127.09 29.77,130.00
             33.98,137.68 41.54,155.34 52.00,153.76
             60.50,152.48 66.51,136.85 70.60,130.00
             72.26,127.23 75.71,120.48 79.79,122.17
             82.50,123.29 84.86,129.37 86.00,132.00
             86.00,132.00 96.72,156.00 96.72,156.00
             98.13,159.38 99.93,163.43 97.40,166.77
             92.18,173.66 77.00,167.52 73.74,175.11
             73.01,176.80 73.03,179.18 73.05,181.00
             73.05,181.00 73.05,196.00 73.05,196.00
             73.05,196.00 74.00,208.00 74.00,208.00
             74.00,208.00 74.00,265.00 74.00,265.00
             73.99,268.59 74.23,272.78 72.15,275.89
             67.92,282.20 59.65,279.98 56.45,273.96
             54.94,271.11 55.10,268.10 54.72,265.00
             54.72,265.00 53.34,249.00 53.34,249.00
             53.34,249.00 54.00,238.00 54.00,238.00
             54.00,238.00 54.00,195.00 54.00,195.00
             54.00,187.04 55.26,180.01 51.00,173.00 Z" />
</svg>
