<svg xmlns="http://www.w3.org/2000/svg" viewBox="170 -2929.02 1030 2857">
  <path d="M 582 -2904 c -79 39 -129 110 -135 191 c -7 96 30 180 101 228 l 33 23 l -113 4 c -143 4 -181 22 -217 101 c -53 120 -19 281 108 500 c 32 55 45 87 37 87 c -12 0 -106 175 -106 196 c 0 4 -14 37 -31 73 c -54 114 -89 208 -89 240 c 0 20 10 42 29 63 l 29 32 l 101 1 c 94 0 101 1 102 20 c 3 85 7 231 13 555 c 4 206 9 386 12 400 c 10 48 50 95 92 109 c 52 17 87 8 128 -33 l 34 -34 l 35 34 c 69 65 167 53 196 -25 c 9 -22 12 -571 5 -889 l -3 -142 l 61 -1 c 33 -1 66 -2 71 -4 c 6 -1 25 -3 43 -3 c 46 -3 82 -41 82 -88 c 0 -38 -14 -75 -108 -279 c -101 -222 -104 -227 -117 -221 c -18 7 13 -61 90 -194 c 104 -182 123 -350 50 -442 c -38 -47 -42 -48 -310 -58 c -22 -1 -34 -4 -28 -7 c 7 -2 15 -4 18 -4 c 7 1 50 -44 81 -84 c 14 -19 23 -35 20 -35 c -4 0 -2 -9 5 -21 c 6 -11 10 -50 10 -86 c 0 -50 -6 -74 -25 -107 c -68 -116 -191 -156 -304 -100 z m 159 5 c 88 27 150 112 151 205 c 1 133 -87 224 -216 224 c -101 0 -172 -54 -201 -155 c -49 -166 103 -322 266 -274 z m 316 477 c 12 7 35 29 50 49 c 26 33 28 44 28 122 c -1 111 -21 160 -196 476 c -73 132 -146 264 -162 293 c -50 90 -102 104 -151 39 l -20 -27 l 37 -73 c 20 -39 56 -108 80 -152 c 24 -44 76 -141 116 -215 c 41 -74 78 -141 84 -148 c 9 -11 5 -13 -17 -10 c -22 2 -34 15 -62 68 c -20 36 -46 83 -59 105 c -12 22 -40 73 -60 114 l -38 74 l -33 -59 c -18 -33 -64 -114 -101 -181 c -55 -100 -72 -123 -90 -123 c -13 0 -23 2 -23 4 c 0 2 33 61 73 132 c 40 71 90 160 111 197 l 37 69 l -38 74 c -21 41 -40 74 -43 74 c -7 0 -219 -370 -257 -449 c -101 -212 -99 -379 7 -449 l 41 -11 l 335 4 z m -563 840 c 53 93 107 179 120 191 c 33 31 93 37 131 13 c 28 -18 125 -177 195 -319 c 28 -58 37 -63 49 -31 c 5 13 50 114 100 226 c 87 193 103 248 83 280 c -14 21 -73 33 -162 31 l -85 -2 l 2 99 c 2 82 4 858 3 930 c 0 33 -47 74 -85 74 c -45 0 -98 -38 -112 -82 c -9 -26 -12 -177 -14 -527 l -1 -491 l -23 0 c -20 0 -21 4 -19 47 c 2 27 4 262 4 523 l 2 475 l -31 27 c -35 31 -68 35 -111 13 c -37 -19 -57 -58 -64 -121 c -5 -42 -14 -512 -17 -857 l -1 -107 l -94 6 c -104 8 -143 -2 -164 -41 c -17 -31 -9 -75 28 -155 c 29 -63 56 -122 92 -205 c 55 -127 73 -165 75 -165 c 1 0 46 76 99 168 z z" fill="#000000"/>
</svg>